Motion_mu03
version=1
nRows=5
nColumns=43
inDegrees=yes
endheader
time	pelvis_tilt	pelvis_list	pelvis_rotation	pelvis_tx	pelvis_ty	pelvis_tz	hip_flexion_r	hip_adduction_r	hip_rotation_r	knee_angle_r	ankle_angle_r	subtalar_angle_r	mtp_angle_r	hip_flexion_l	hip_adduction_l	hip_rotation_l	knee_angle_l	ankle_angle_l	subtalar_angle_l	mtp_angle_l	lumbar_extension	lumbar_bending	lumbar_rotation	neck_flexion	neck_lateral_bending	neck_rotation	arm_flex_r	arm_add_r	arm_rot_r	elbow_flex_r	pro_sup_r	wrist_flex_r	wrist_dev_r	hand_finger_flex_r	arm_flex_l	arm_add_l	arm_rot_l	elbow_flex_l	pro_sup_l	wrist_flex_l	wrist_dev_l	hand_finger_flex_l
      0.00250000	      1.60523601	     13.95984502	    -91.13888826	      0.00368879	      0.92695382	      0.68738277	      7.95343134	     -6.36662176	     -8.65361653	    -10.00756406	     12.09775374	      0.75691618	     -0.76786693	      3.94720584	      0.01314037	    -12.45061635	     -2.38753447	     13.44937532	      1.87028586	     -6.74383511	     12.73136965	     -0.75230209	     -3.95563366	     23.85510763	      0.47516485	      9.91355987	    -55.08418556	   -158.59931707	   -145.33342817	     44.20493177	    144.61992109	     -5.88475094	    -10.32427850	    -15.08405825	    -43.16704521	    207.81115505	   -116.79014611	     36.21859906	    124.97399829	    -48.89878295	    -10.28871419	     47.45866098
      0.00500000	      1.60699763	     13.98634413	    -91.15028731	      0.00358439	      0.92735297	      0.68816415	      7.93412649	     -6.35365489	     -8.65137323	    -10.01973809	     12.09480543	      0.75803905	     -0.76838489	      3.92533169	      0.00347787	    -12.45525429	     -2.40225796	     13.44431043	      1.86839309	     -6.74541759	     12.77151955	     -0.76805575	     -3.96038768	     23.85613819	      0.48165056	      9.91011580	    -55.02465933	   -158.63885823	   -145.34790097	     44.21225489	    144.61008882	     -5.87637891	    -10.32974275	    -15.08193019	    -43.16081099	    207.77715350	   -116.78716298	     36.21633287	    124.97215159	    -48.89389550	    -10.28341172	     47.46137214
      0.00750000	      1.52507244	     14.09322385	    -91.16795689	      0.00348840	      0.92743083	      0.68846262	      8.13472301	     -6.27272234	     -8.46755899	    -10.19725489	     11.87364088	      0.80919731	     -0.81451702	      4.11750365	     -0.10984783	    -12.68776214	     -2.57654372	     13.17671080	      1.84271914	     -6.86624930	     12.80395372	     -0.67739488	     -4.00975219	     24.09071729	      0.63285115	      9.74438408	    -54.67086805	   -158.87686377	   -145.39557363	     43.71799302	    143.94094732	     -4.85940307	    -10.96106325	    -14.79861318	    -42.80583577	    207.65418754	   -116.44189489	     35.92443025	    124.79067166	    -48.30368244	     -9.94627223	     47.78350561
      0.01000000	      1.52728874	     14.11776727	    -91.17665529	      0.00337549	      0.92768833	      0.68930220	      8.11962115	     -6.27255288	     -8.47007494	    -10.20289965	     11.87151921	      0.80768659	     -0.81498697	      4.09369943	     -0.12184954	    -12.68500543	     -2.58678020	     13.17390898	      1.84485244	     -6.86738739	     12.84508274	     -0.69393068	     -4.00469433	     24.09221356	      0.63555761	      9.74436581	    -54.60699446	   -158.91258439	   -145.40949027	     43.71705279	    143.93644104	     -4.85506250	    -10.96002126	    -14.79770458	    -42.79807733	    207.61834735	   -116.43981511	     35.92771800	    124.78812178	    -48.29828456	     -9.94438466	     47.78602079
      0.01250000	      1.54047994	     14.21152117	    -91.26883311	      0.00339290	      0.92791474	      0.68965267	      8.21139742	     -6.29092751	     -8.50127199	    -10.18287624	     11.77985402	      0.80262640	     -0.82918827	      4.16084600	     -0.13242245	    -12.61188572	     -2.60441022	     13.07516780	      1.92534274	     -6.89541892	     12.90577735	     -0.67423205	     -3.91561582	     24.21902397	      0.70127283	      9.72689822	    -54.28187786	   -159.16659147	   -145.39093329	     43.13183888	    143.88791333	     -4.58903607	    -10.95554301	    -14.71827322	    -42.65481955	    207.42830638	   -116.39129771	     35.60620450	    124.71718556	    -48.09826052	     -9.86350712	     47.87014421
